# xmcd
#
# Track frame offsets:
#	150
#	15857
#	29020
#	46387
#	59632
#	80335
#	94695
#	113320
#	134325
#	147155
#	168330
#
# Disc length: 2456 seconds
#
# Revision: 2
# Processed by: cddbd v1.5.1PL0 Copyright (c) Steve Scherf et al.
# Submitted via: audiograbber 1.83.01
#
DISCID=8609960b
DTITLE=Just Country Band -  Just Country Band 2
DYEAR=1992
DGENRE=Country
TTITLE0=Song Of The South
TTITLE1=If You Ain't Lovin You Ain't Livin
TTITLE2=Halt Mich
TTITLE3=Baby Got Her Blue Jeans On
TTITLE4=Orange Blossom Special
TTITLE5=Hello Trouble
TTITLE6=Better Man
TTITLE7=Seven Spanish Angels
TTITLE8=Streets Of Bakersfield
TTITLE9=Usa Today
TTITLE10=There's A Tear In My Beer
EXTD=
EXTT0=
EXTT1=
EXTT2=
EXTT3=
EXTT4=
EXTT5=
EXTT6=
EXTT7=
EXTT8=
EXTT9=
EXTT10=
PLAYORDER=
